<svg width="90" height="19" viewBox="0 0 90 19" fill="none" xmlns="http://www.w3.org/2000/svg">
<path id="App Store" fill-rule="evenodd" clip-rule="evenodd" d="M11.6656 15.337H14.165L8.69367 0.36319H6.16277L0.691406 15.337H3.10679L4.50351 11.3626H10.2794L11.6656 15.337ZM7.30793 3.08203H7.48646L9.68131 9.41191H5.10258L7.30793 3.08203ZM20.7918 3.84985C19.2376 3.84985 17.8934 4.61774 17.2003 5.90447H17.0322V4.03664H14.8584V19H17.1163V13.6248H17.2948C17.8934 14.8182 19.1851 15.5238 20.8128 15.5238C23.7008 15.5238 25.5386 13.272 25.5386 9.68164C25.5386 6.09125 23.7008 3.84985 20.7918 3.84985ZM20.1512 13.521C18.2609 13.521 17.0742 12.0475 17.0742 9.69197C17.0742 7.32605 18.2609 5.85254 20.1617 5.85254C22.073 5.85254 23.2177 7.29492 23.2177 9.68159C23.2177 12.0786 22.073 13.521 20.1512 13.521ZM32.5019 3.84985C30.9477 3.84985 29.6035 4.61774 28.9104 5.90447H28.7423V4.03664H26.5685V19H28.8264V13.6248H29.0049C29.6035 14.8182 30.8952 15.5238 32.5229 15.5238C35.4109 15.5238 37.2487 13.272 37.2487 9.68164C37.2487 6.09125 35.4109 3.84985 32.5019 3.84985ZM31.8621 13.521C29.9718 13.521 28.7852 12.0475 28.7852 9.69197C28.7852 7.32605 29.9718 5.85254 31.8726 5.85254C33.7839 5.85254 34.9286 7.29492 34.9286 9.68159C34.9286 12.0786 33.7839 13.521 31.8621 13.521ZM42.0293 11.3108C42.1973 13.988 44.4552 15.7002 47.8157 15.7002C51.4073 15.7002 53.6546 13.905 53.6546 11.041C53.6546 8.78919 52.3734 7.54396 49.2649 6.82796L47.5952 6.42327C45.6209 5.96668 44.8227 5.35445 44.8227 4.28564C44.8227 2.93665 46.0619 2.05462 47.9207 2.05462C49.685 2.05462 50.9032 2.91589 51.1237 4.29601H53.4131C53.2766 1.77444 51.0292 0 47.9522 0C44.6442 0 42.4389 1.77444 42.4389 4.44129C42.4389 6.64118 43.6886 7.94866 46.4295 8.58165L48.3828 9.04861C50.3886 9.51556 51.2708 10.2004 51.2708 11.3419C51.2708 12.6701 49.8845 13.6352 47.9942 13.6352C45.9674 13.6352 44.5602 12.7324 44.3607 11.3108H42.0293ZM55.5976 1.29712V4.08849H53.7178V5.9667H55.5976V12.3485C55.5976 14.5276 56.5952 15.3992 59.1051 15.3992C59.5462 15.3992 59.9558 15.3474 60.3128 15.2851V13.4276C59.9978 13.4588 59.8192 13.4795 59.4727 13.4795C58.349 13.4795 57.8554 12.9607 57.8554 11.7777V5.9667H60.4178V4.08849H57.8554V1.29712H55.5976ZM66.0157 13.5728C64.0519 13.5728 62.9492 12.1512 62.9492 9.68148C62.9492 7.23254 64.0519 5.80054 66.0157 5.80054C67.969 5.80054 69.0822 7.23254 69.0822 9.68148C69.0822 12.1408 67.969 13.5728 66.0157 13.5728ZM66.016 15.5548C69.3555 15.5548 71.4034 13.3445 71.4034 9.68152C71.4034 6.03925 69.345 3.8186 66.016 3.8186C62.6765 3.8186 60.6182 6.03925 60.6182 9.68152C60.6182 13.3445 62.666 15.5548 66.016 15.5548ZM72.4327 15.337H74.6906V8.66466C74.6906 7.07701 75.8983 6.00819 77.5995 6.00819C77.9776 6.00819 78.6707 6.08083 78.8492 6.14309V3.9432C78.6077 3.88094 78.1771 3.84981 77.8516 3.84981C76.3603 3.84981 75.1001 4.6592 74.7746 5.76953H74.6066V4.03659H72.4327V15.337ZM83.9322 5.71753C85.602 5.71753 86.6941 6.86936 86.7467 8.6438H80.9707C81.0968 6.87974 82.2624 5.71753 83.9322 5.71753ZM86.7363 12.2861C86.3162 13.1681 85.3816 13.6559 84.0164 13.6559C82.2101 13.6559 81.0444 12.4003 80.9709 10.4183V10.2938H89.0467V9.51549C89.0467 5.96661 87.1249 3.8186 83.9429 3.8186C80.7188 3.8186 78.671 6.11189 78.671 9.72303C78.671 13.3342 80.6768 15.5548 83.9534 15.5548C86.5683 15.5548 88.3956 14.3096 88.9101 12.2861H86.7363Z" fill="white"/>
</svg>
