<svg width="40" height="40" viewBox="0 0 40 40" fill="none" xmlns="http://www.w3.org/2000/svg">
<path fill-rule="evenodd" clip-rule="evenodd" d="M22.2952 2.5V5.54391H24.2952V2.5H22.2952ZM37.5001 15.7049H34.4562V17.7049H37.5001V15.7049ZM32.4609 10.2584L35.097 8.73643L36.097 10.4685L33.4609 11.9904L32.4609 10.2584ZM29.5317 3.90306L28.0097 6.53917L29.7418 7.53917L31.2637 4.90306L29.5317 3.90306ZM16.8486 7.53917L15.3267 4.90306L17.0587 3.90306L18.5807 6.53917L16.8486 7.53917ZM30.692 16.7047C30.692 18.2103 30.2465 19.6119 29.4803 20.7848C30.1775 20.8895 30.8442 21.0878 31.467 21.3664C32.2468 19.9902 32.692 18.3995 32.692 16.7047C32.692 11.4746 28.4521 7.2348 23.222 7.2348C19.4664 7.2348 16.2214 9.42097 14.6902 12.5901L14.7012 12.5901C15.4386 12.5901 16.1601 12.6583 16.8596 12.7886C18.175 10.6561 20.5325 9.2348 23.222 9.2348C27.3475 9.2348 30.692 12.5792 30.692 16.7047Z" fill="url(#paint0_linear_2487_3736)"/>
<path fill-rule="evenodd" clip-rule="evenodd" d="M17.9278 35.25C18.2436 35.1805 18.5546 35.0969 18.8604 35H26.257C26.489 35.0967 26.727 35.1803 26.9701 35.25H29.0517V35.493C32.5804 35.3286 35.5 32.2953 35.5 28.4375C35.5 24.4703 32.4123 21.375 28.75 21.375C27.8116 21.375 26.9109 21.5782 26.0902 21.9473C25.9738 21.2724 25.7983 20.6188 25.5694 19.9923C25.7244 19.9297 25.8815 19.8714 26.0406 19.8178C24.4462 15.4047 20.3471 12.3125 15.625 12.3125C9.5464 12.3125 4.5 17.4365 4.5 23.9062C4.5 30.376 9.5464 35.5 15.625 35.5C15.7073 35.5 15.7894 35.4991 15.8714 35.4972V35.25H17.9278ZM18.1435 37.25C17.3284 37.4141 16.4864 37.5 15.625 37.5C8.37626 37.5 2.5 31.4139 2.5 23.9062C2.5 16.3986 8.37626 10.3125 15.625 10.3125C21.3511 10.3125 26.2208 14.1103 28.0139 19.4066C28.2566 19.3857 28.5021 19.375 28.75 19.375C33.5825 19.375 37.5 23.4324 37.5 28.4375C37.5 33.4426 33.5825 37.5 28.75 37.5C28.0441 37.5 27.3578 37.4134 26.7003 37.25H18.1435ZM22.9794 35.25H22.8599C22.8827 35.2344 22.9054 35.2187 22.9281 35.203C22.9451 35.2187 22.9622 35.2344 22.9794 35.25Z" fill="url(#paint1_linear_2487_3736)"/>
<defs>
<linearGradient id="paint0_linear_2487_3736" x1="26.0952" y1="2.5" x2="26.0952" y2="21.3664" gradientUnits="userSpaceOnUse">
<stop stop-color="#EFC977"/>
<stop offset="1" stop-color="#E07256"/>
</linearGradient>
<linearGradient id="paint1_linear_2487_3736" x1="20" y1="10.3125" x2="20" y2="37.5" gradientUnits="userSpaceOnUse">
<stop stop-color="#B2D4F7"/>
<stop offset="1" stop-color="#D9E2F3"/>
</linearGradient>
</defs>
</svg>
