<svg width="86" height="8" viewBox="0 0 86 8" fill="none" xmlns="http://www.w3.org/2000/svg">
<path id="Download on the" fill-rule="evenodd" clip-rule="evenodd" d="M0.677734 0.370033V7.89055H3.26919C5.408 7.89055 6.64653 6.50945 6.64653 4.10684C6.64653 1.74072 5.39806 0.370033 3.26919 0.370033H0.677734ZM1.79191 1.43322H3.14483C4.63206 1.43322 5.51245 2.42345 5.51245 4.12248C5.51245 5.84756 4.64698 6.82736 3.14483 6.82736H1.79191V1.43322ZM10.5667 7.00466C9.63653 7.00466 9.11426 6.29065 9.11426 5.05026C9.11426 3.82029 9.63653 3.10107 10.5667 3.10107C11.4918 3.10107 12.0191 3.82029 12.0191 5.05026C12.0191 6.28544 11.4918 7.00466 10.5667 7.00466ZM10.5674 7.99993C12.1491 7.99993 13.119 6.88983 13.119 5.05009C13.119 3.22078 12.1441 2.10547 10.5674 2.10547C8.98565 2.10547 8.01074 3.22078 8.01074 5.05009C8.01074 6.88983 8.98067 7.99993 10.5674 7.99993ZM21.5009 2.21509H20.4315L19.4665 6.54603H19.382L18.2678 2.21509H17.2431L16.129 6.54603H16.0494L15.0794 2.21509H13.9951L15.4873 7.89066H16.5866L17.7007 3.71085H17.7853L18.9044 7.89066H20.0137L21.5009 2.21509ZM22.8594 7.89048H23.9288V4.57062C23.9288 3.68462 24.456 3.13218 25.3165 3.13218C26.1124 3.13218 26.5003 3.5856 26.5003 4.49765V7.89048H27.5697V4.21622C27.5697 2.86638 26.8883 2.10547 25.6796 2.10547C24.8639 2.10547 24.2322 2.48592 23.9686 3.11654H23.889V2.21492H22.8594V7.89048ZM29.377 7.89055H30.4464V0H29.377V7.89055ZM34.59 7.00466C33.6599 7.00466 33.1376 6.29065 33.1376 5.05026C33.1376 3.82029 33.6599 3.10107 34.59 3.10107C35.5152 3.10107 36.0424 3.82029 36.0424 5.05026C36.0424 6.28544 35.5152 7.00466 34.59 7.00466ZM34.59 7.99993C36.1717 7.99993 37.1417 6.88983 37.1417 5.05009C37.1417 3.22078 36.1668 2.10547 34.59 2.10547C33.0083 2.10547 32.0334 3.22078 32.0334 5.05009C32.0334 6.88983 33.0033 7.99993 34.59 7.99993ZM40.451 7.04107C39.8691 7.04107 39.4463 6.74401 39.4463 6.23326C39.4463 5.73293 39.7845 5.46713 40.5306 5.41502L41.8537 5.32642V5.80068C41.8537 6.50427 41.2568 7.04107 40.451 7.04107ZM40.1776 7.9843C40.8889 7.9843 41.4808 7.66117 41.8041 7.09309H41.8887V7.89048H42.9183V4.01296C42.9183 2.81426 42.1523 2.10547 40.7944 2.10547C39.5658 2.10547 38.6904 2.73088 38.581 3.70547H39.6156C39.7349 3.30417 40.1478 3.07485 40.7447 3.07485C41.4758 3.07485 41.8539 3.41361 41.8539 4.01296V4.50286L40.3865 4.59146C39.0983 4.67485 38.3721 5.26377 38.3721 6.28527C38.3721 7.32241 39.1331 7.9843 40.1776 7.9843ZM46.6739 7.98436C47.42 7.98436 48.0517 7.61433 48.375 6.99414H48.4595V7.89055H49.4842V0H48.4148V3.11661H48.3352C48.0417 2.49121 47.415 2.12117 46.6739 2.12117C45.306 2.12117 44.4256 3.25733 44.4256 5.05016C44.4256 6.84821 45.2961 7.98436 46.6739 7.98436ZM46.9787 3.12695C47.874 3.12695 48.4361 3.87223 48.4361 5.05529C48.4361 6.24357 47.879 6.97842 46.9787 6.97842C46.0734 6.97842 45.5312 6.25399 45.5312 5.05008C45.5312 3.85659 46.0784 3.12695 46.9787 3.12695ZM56.669 7.00456C55.7389 7.00456 55.2166 6.29055 55.2166 5.05016C55.2166 3.8202 55.7389 3.10098 56.669 3.10098C57.5942 3.10098 58.1214 3.8202 58.1214 5.05016C58.1214 6.28534 57.5942 7.00456 56.669 7.00456ZM56.669 8C58.2507 8 59.2206 6.8899 59.2206 5.05016C59.2206 3.22085 58.2457 2.10554 56.669 2.10554C55.0873 2.10554 54.1124 3.22085 54.1124 5.05016C54.1124 6.8899 55.0823 8 56.669 8ZM60.7586 7.89055H61.828V4.57068C61.828 3.68469 62.3553 3.13225 63.2158 3.13225C64.0116 3.13225 64.3996 3.58567 64.3996 4.49772V7.89055H65.469V4.21629C65.469 2.86645 64.7875 2.10554 63.5789 2.10554C62.7631 2.10554 62.1314 2.48599 61.8678 3.11661H61.7882V2.21498H60.7586V7.89055ZM70.6442 0.839111V2.24107H69.7539V3.18439H70.6442V6.3896C70.6442 7.48406 71.1168 7.92185 72.3056 7.92185C72.5145 7.92185 72.7085 7.89579 72.8776 7.86452V6.93162C72.7284 6.94725 72.6438 6.95768 72.4797 6.95768C71.9474 6.95768 71.7137 6.69709 71.7137 6.10295V3.18439H72.9273V2.24107H71.7137V0.839111H70.6442ZM74.45 7.89055H75.5194V4.5759C75.5194 3.71596 76.0616 3.13746 76.937 3.13746C77.7428 3.13746 78.1457 3.59609 78.1457 4.50293V7.89055H79.2151V4.22671C79.2151 2.87687 78.5188 2.11075 77.3001 2.11075C76.4844 2.11075 75.8577 2.49121 75.594 3.12704H75.5095V0H74.45V7.89055ZM83.2005 3.05933C83.9914 3.05933 84.5087 3.63783 84.5335 4.52903H81.7979C81.8575 3.64304 82.4097 3.05933 83.2005 3.05933ZM84.529 6.35824C84.3301 6.80123 83.8874 7.04619 83.2407 7.04619C82.3852 7.04619 81.8331 6.41557 81.7983 5.42013V5.35759H85.6233V4.96671C85.6233 3.1843 84.7131 2.10547 83.2059 2.10547C81.6789 2.10547 80.709 3.25726 80.709 5.07094C80.709 6.88462 81.659 7.99993 83.2109 7.99993C84.4494 7.99993 85.3149 7.37452 85.5586 6.35824H84.529Z" fill="white"/>
</svg>
