<svg width="44" height="9" viewBox="0 0 44 9" fill="none" xmlns="http://www.w3.org/2000/svg">
<path id="get it on" fill-rule="evenodd" clip-rule="evenodd" d="M33.9588 8.01738C35.9511 8.01738 37.5661 6.40561 37.5661 4.41738C37.5661 2.42916 35.9511 0.817383 33.9588 0.817383C31.9666 0.817383 30.3516 2.42916 30.3516 4.41738C30.3516 6.40561 31.9666 8.01738 33.9588 8.01738ZM33.9591 6.91736C35.3426 6.91736 36.4642 5.79807 36.4642 4.41736C36.4642 3.03665 35.3426 1.91736 33.9591 1.91736C32.5756 1.91736 31.4541 3.03665 31.4541 4.41736C31.4541 5.79807 32.5756 6.91736 33.9591 6.91736ZM12.4143 1.11743H8.40625V1.21743V1.91743V4.01743V4.81743V7.01743V7.81743H9.50847L12.4143 7.81743V7.01743H9.50847V4.81743H12.1137V4.01743H9.50847V1.91743H12.4143V1.11743ZM13.5176 1.11743H15.2207H16.3229H18.0267V1.91743H16.3229V7.81743H15.2207V1.91743H13.5176V1.11743ZM25.04 1.11743H23.3369V1.91743H25.04V7.81743H26.1423V1.91743H27.846V1.11743H26.1423H25.04ZM22.3346 1.11743H21.2324V7.81743H22.3346V1.11743ZM38.4668 1.11743H38.6672H39.569H39.7694L42.7755 6.01987V1.11743H43.8777V7.81743H42.7755L39.569 2.58816V7.81743H38.4668V1.11743ZM7.58941 4.44734C7.58941 6.39683 6.04524 7.9772 4.14041 7.9772C2.23558 7.9772 0.691406 6.39683 0.691406 4.44734C0.691406 2.49785 2.23558 0.91748 4.14041 0.91748C5.10836 0.91748 5.98318 1.32557 6.60957 1.9828L5.94489 2.64543C5.49562 2.18515 4.87527 1.90051 4.1901 1.90051C2.81874 1.90051 1.70703 3.04075 1.70703 4.44731C1.70703 5.85387 2.81874 6.99411 4.1901 6.99411C5.34581 6.99411 6.31711 6.18429 6.59401 5.08771H4.27734V4.13452H6.65462L6.65462 4.13449H7.57605C7.58489 4.23757 7.58941 4.34191 7.58941 4.44734Z" fill="white"/>
</svg>
