<svg width="95" height="20" viewBox="0 0 95 20" fill="none" xmlns="http://www.w3.org/2000/svg">
<path id="googleplay" fill-rule="evenodd" clip-rule="evenodd" d="M7.38932 15.3335C11.3646 15.3335 14.5872 12.0392 14.5872 7.97545C14.5872 7.75569 14.5778 7.53817 14.5594 7.32331H13.9719L13.9719 7.32324H7.67383V9.31017H12.5105C11.9326 11.596 9.90553 13.2841 7.49361 13.2841C4.63164 13.2841 2.31155 10.9073 2.31155 7.97528C2.31155 5.04329 4.63164 2.66645 7.49361 2.66645C8.9232 2.66645 10.2176 3.25951 11.1551 4.21857L12.5419 2.83767C11.2347 1.46791 9.40918 0.617432 7.38932 0.617432C3.41402 0.617432 0.191406 3.91173 0.191406 7.97545C0.191406 12.0392 3.41402 15.3335 7.38932 15.3335ZM46.4844 1.11743H48.6045V15.088H46.4844V1.11743ZM75.3429 1.11743H73.3389V15.1174H75.3429V1.11743ZM76.96 7.73916C76.96 7.73916 77.8941 5.81738 80.6969 5.81738C84.1658 5.81738 84.7697 8.19413 84.7752 9.01294H84.7755V15.1129H82.7715V14.116C82.2195 14.5707 81.337 14.9986 79.9428 15.0855C76.7497 15.2846 76.748 12.3767 76.748 12.1806C76.748 12.1728 76.7478 12.1616 76.7474 12.1473C76.7398 11.7998 76.6911 9.59811 79.1305 9.23608C80.9296 8.96909 82.1895 9.41414 82.7715 9.69651V9.28669C82.6292 8.74231 82.1866 7.73916 80.857 7.73916C79.0323 7.73916 78.6293 8.72373 78.6293 8.72373L76.96 7.73916ZM82.6283 11.1177C82.6283 11.1177 78.7675 10.0792 78.6333 12.2437C78.4991 14.4083 82.3372 13.3689 82.6801 11.8345C82.6801 11.3465 82.6283 11.1177 82.6283 11.1177ZM89.5366 12.2108L86.966 6.11743H84.9619L88.5346 14.5859L86.665 19.0175H88.6691L94.0909 6.16589H92.0869L89.5366 12.2108ZM58.2304 9.38995C58.2304 9.38995 57.3517 5.81738 53.9918 5.81738C50.632 5.81738 49.4902 8.83694 49.4902 10.6202C49.4902 12.4711 50.9287 15.321 54.1945 15.321C56.8521 15.321 58.1497 13.2266 58.1497 13.2266L56.5417 12.1397C56.5417 12.1397 55.6993 13.4673 54.2072 13.4597C52.3016 13.45 51.8922 12.0041 51.8922 12.0041L58.2304 9.38995ZM55.8184 8.6494C55.8184 8.6494 55.021 7.43858 53.798 7.66188C51.2111 8.13424 51.5366 10.3935 51.5366 10.3935L55.8184 8.6494ZM43.0912 6.12101V6.99285C43.0912 6.99285 42.2392 5.76912 40.4667 5.81886C38.2537 5.88095 35.9629 7.58792 35.9629 10.5722C35.9629 13.5565 38.3957 15.307 40.443 15.307C42.3313 15.307 43.0915 14.1195 43.0915 14.1195V15.0762C43.0915 15.759 42.835 17.7539 40.6379 17.7539C38.7085 17.7539 38.1595 16.0301 38.1595 16.0301L36.3596 16.7856C36.3596 16.7856 37.3812 19.5826 40.5443 19.5826C43.7075 19.5826 45.0511 17.2051 45.0511 14.9529V6.13791L43.0912 6.12101ZM43.1982 10.5974C43.1982 12.2091 42.0396 13.5157 40.6103 13.5157C39.1811 13.5157 38.0225 12.2091 38.0225 10.5974C38.0225 8.98563 39.1811 7.67906 40.6103 7.67906C42.0396 7.67906 43.1982 8.98563 43.1982 10.5974ZM30.3133 15.3174C32.9479 15.3174 35.0836 13.1907 35.0836 10.5674C35.0836 7.94403 32.9479 5.81738 30.3133 5.81738C27.6787 5.81738 25.543 7.94403 25.543 10.5674C25.543 13.1907 27.6787 15.3174 30.3133 15.3174ZM30.2821 13.4546C31.763 13.4546 32.9635 12.162 32.9635 10.5674C32.9635 8.9728 31.763 7.68013 30.2821 7.68013C28.8012 7.68013 27.6008 8.9728 27.6008 10.5674C27.6008 12.162 28.8012 13.4546 30.2821 13.4546ZM24.7623 10.5674C24.7623 13.1907 22.6266 15.3174 19.992 15.3174C17.3574 15.3174 15.2217 13.1907 15.2217 10.5674C15.2217 7.94403 17.3574 5.81738 19.992 5.81738C22.6266 5.81738 24.7623 7.94403 24.7623 10.5674ZM22.6422 10.5674C22.6422 12.162 21.4417 13.4546 19.9608 13.4546C18.48 13.4546 17.2795 12.162 17.2795 10.5674C17.2795 8.9728 18.48 7.68013 19.9608 7.68013C21.4417 7.68013 22.6422 8.9728 22.6422 10.5674ZM62.7168 1.11743H63.2178H64.7208H68.8985C68.8985 1.11743 72.1687 1.67271 72.1687 5.42041C72.1687 9.16812 68.8985 9.72339 68.8985 9.72339H64.7208V15.1174H62.7168V1.11743ZM64.7208 3.1991V7.81741H68.1767C68.1767 7.81741 69.9316 7.81741 69.9316 5.50825C69.9316 3.1991 68.1767 3.1991 68.1767 3.1991H64.7208Z" fill="white"/>
</svg>
