<svg width="24" height="29" viewBox="0 0 24 29" fill="none" xmlns="http://www.w3.org/2000/svg">
<path id="Logo apple" fill-rule="evenodd" clip-rule="evenodd" d="M17.6142 0.000244141C17.8035 1.71015 17.1214 3.39512 16.1245 4.63364C15.0842 5.85289 13.42 6.78546 11.7992 6.66535C11.587 5.02004 12.4083 3.27048 13.3276 2.20306C14.3667 0.991738 16.1713 0.0636998 17.6142 0.000244141ZM22.9201 9.86401C22.7392 9.97126 19.7415 11.7487 19.7743 15.3734C19.8131 19.7507 23.6297 21.1978 23.6753 21.2125C23.6525 21.3145 23.0776 23.3031 21.6461 25.3178C20.4507 27.0946 19.1983 28.8317 17.209 28.8612C16.263 28.8834 15.6243 28.6133 14.9586 28.3318C14.2647 28.0384 13.5415 27.7326 12.4103 27.7326C11.2112 27.7326 10.4559 28.0485 9.72759 28.3531C9.09741 28.6167 8.48745 28.8718 7.6276 28.9065C5.73299 28.9756 4.28551 27.0119 3.04677 25.251C0.570432 21.6578 -1.35726 15.1253 1.22744 10.68C2.47987 8.49984 4.76344 7.09588 7.20442 7.05849C8.27932 7.03666 9.31027 7.44818 10.214 7.80894C10.9052 8.08481 11.5219 8.331 12.0271 8.331C12.4708 8.331 13.0702 8.09466 13.7689 7.81919C14.8699 7.38508 16.2174 6.8538 17.59 6.9973C18.5288 7.0245 21.2001 7.36557 22.9237 9.86187L22.9201 9.86401Z" fill="white"/>
</svg>
