<svg width="28" height="31" viewBox="0 0 28 31" fill="none" xmlns="http://www.w3.org/2000/svg">
<g id="logo_play">
<path id="yellow" fill-rule="evenodd" clip-rule="evenodd" d="M13.3305 7.5667C19.356 10.9869 19.356 19.6695 13.3306 23.0898V23.0898C7.38095 26.4671 1.52588e-05 22.1696 1.52588e-05 15.3283V15.3283C1.52588e-05 8.487 7.38086 4.18955 13.3305 7.5667V7.5667Z" fill="url(#paint0_linear_2487_3171)"/>
<mask id="mask0_2487_3171" style="mask-type:luminance" maskUnits="userSpaceOnUse" x="0" y="6" width="18" height="19">
<path id="yellow_2" fill-rule="evenodd" clip-rule="evenodd" d="M13.3305 7.5667C19.356 10.9869 19.356 19.6695 13.3306 23.0898V23.0898C7.38095 26.4671 1.52588e-05 22.1696 1.52588e-05 15.3283V15.3283C1.52588e-05 8.487 7.38086 4.18955 13.3305 7.5667V7.5667Z" fill="white"/>
</mask>
<g mask="url(#mask0_2487_3171)">
<path id="blue" fill-rule="evenodd" clip-rule="evenodd" d="M-0.020252 1.20752L13.9866 15.1011L-0.201172 29.5437L-0.020252 1.20752Z" fill="url(#paint1_linear_2487_3171)"/>
<path id="green" fill-rule="evenodd" clip-rule="evenodd" d="M-2.90015 -1.65259L13.9854 15.1052L19.0057 10.3256L-2.90015 -1.65259Z" fill="url(#paint2_linear_2487_3171)"/>
<path id="red" fill-rule="evenodd" clip-rule="evenodd" d="M13.9881 15.1021L21.6737 22.8331L-1.28613 30.5642L13.9881 15.1021Z" fill="url(#paint3_linear_2487_3171)"/>
</g>
</g>
<defs>
<linearGradient id="paint0_linear_2487_3171" x1="27.0041" y1="9.36372" x2="16.4961" y2="9.36372" gradientUnits="userSpaceOnUse">
<stop stop-color="#FBDA09"/>
<stop offset="1" stop-color="#FFBC00"/>
</linearGradient>
<linearGradient id="paint1_linear_2487_3171" x1="1.17451" y1="27.5967" x2="11.5733" y2="26.1398" gradientUnits="userSpaceOnUse">
<stop stop-color="#01E2FF"/>
<stop offset="1" stop-color="#01C4FF"/>
</linearGradient>
<linearGradient id="paint2_linear_2487_3171" x1="-5.41464" y1="7.03993" x2="4.86297" y2="20.4707" gradientUnits="userSpaceOnUse">
<stop stop-color="#28D781"/>
<stop offset="1" stop-color="#02F076"/>
</linearGradient>
<linearGradient id="paint3_linear_2487_3171" x1="7.34935" y1="12.8198" x2="-1.42901" y2="27.7527" gradientUnits="userSpaceOnUse">
<stop stop-color="#F2414E"/>
<stop offset="1" stop-color="#E02554"/>
</linearGradient>
</defs>
</svg>
